<mxfile host="app.diagrams.net" modified="2021-05-17T05:54:34.492Z" agent="5.0 (X11; Linux x86_64) AppleWebKit/537.36 (KHTML, like Gecko) Chrome/88.0.4324.182 Safari/537.36" etag="-o354LUq_pBq1g75ySXB" version="14.3.2" type="github">
  <diagram id="Ww_qnuIjE5x3cNlsC0j9" name="Page-1">
    <mxGraphModel dx="1182" dy="688" grid="1" gridSize="10" guides="1" tooltips="1" connect="1" arrows="1" fold="1" page="1" pageScale="1" pageWidth="827" pageHeight="1169" math="0" shadow="0">
      <root>
        <mxCell id="0" />
        <mxCell id="1" parent="0" />
        <mxCell id="jVQ83cVJ5n_UA02Piwop-5" value="" style="rounded=0;whiteSpace=wrap;html=1;" parent="1" vertex="1">
          <mxGeometry x="40" y="60" width="300" height="650" as="geometry" />
        </mxCell>
        <mxCell id="jVQ83cVJ5n_UA02Piwop-6" value="" style="rounded=0;whiteSpace=wrap;html=1;" parent="1" vertex="1">
          <mxGeometry x="510" y="60" width="240" height="660" as="geometry" />
        </mxCell>
        <mxCell id="jVQ83cVJ5n_UA02Piwop-7" value="&lt;font style=&quot;font-size: 18px&quot;&gt;Attacker&lt;/font&gt;" style="text;html=1;resizable=0;autosize=1;align=center;verticalAlign=middle;points=[];fillColor=none;strokeColor=none;rounded=0;" parent="1" vertex="1">
          <mxGeometry x="169" y="90" width="80" height="20" as="geometry" />
        </mxCell>
        <mxCell id="jVQ83cVJ5n_UA02Piwop-8" value="&lt;font style=&quot;font-size: 18px&quot;&gt;Victim&lt;/font&gt;" style="text;html=1;resizable=0;autosize=1;align=center;verticalAlign=middle;points=[];fillColor=none;strokeColor=none;rounded=0;" parent="1" vertex="1">
          <mxGeometry x="600" y="90" width="60" height="20" as="geometry" />
        </mxCell>
        <mxCell id="rPoK7AbFEsscb3aZ_IW5-1" value="" style="rounded=0;whiteSpace=wrap;html=1;" vertex="1" parent="1">
          <mxGeometry x="132" y="190" width="167" height="60" as="geometry" />
        </mxCell>
        <mxCell id="rPoK7AbFEsscb3aZ_IW5-2" value="&lt;span style=&quot;font-size: 14px&quot;&gt;execute ./attacker_server&lt;/span&gt;" style="text;html=1;resizable=0;autosize=1;align=center;verticalAlign=middle;points=[];fillColor=none;strokeColor=none;rounded=0;" vertex="1" parent="1">
          <mxGeometry x="130" y="210" width="170" height="20" as="geometry" />
        </mxCell>
        <mxCell id="rPoK7AbFEsscb3aZ_IW5-3" value="" style="endArrow=classic;html=1;" edge="1" parent="1">
          <mxGeometry width="50" height="50" relative="1" as="geometry">
            <mxPoint x="213" y="143" as="sourcePoint" />
            <mxPoint x="213" y="183" as="targetPoint" />
          </mxGeometry>
        </mxCell>
        <mxCell id="rPoK7AbFEsscb3aZ_IW5-4" value="" style="rounded=0;whiteSpace=wrap;html=1;" vertex="1" parent="1">
          <mxGeometry x="50" y="315" width="280" height="105" as="geometry" />
        </mxCell>
        <mxCell id="rPoK7AbFEsscb3aZ_IW5-5" value="" style="endArrow=classic;html=1;" edge="1" parent="1">
          <mxGeometry width="50" height="50" relative="1" as="geometry">
            <mxPoint x="214" y="260" as="sourcePoint" />
            <mxPoint x="214" y="300" as="targetPoint" />
          </mxGeometry>
        </mxCell>
        <mxCell id="rPoK7AbFEsscb3aZ_IW5-14" style="edgeStyle=orthogonalEdgeStyle;rounded=0;orthogonalLoop=1;jettySize=auto;html=1;" edge="1" parent="1" source="rPoK7AbFEsscb3aZ_IW5-10">
          <mxGeometry relative="1" as="geometry">
            <mxPoint x="500" y="346" as="targetPoint" />
          </mxGeometry>
        </mxCell>
        <mxCell id="rPoK7AbFEsscb3aZ_IW5-10" value="&lt;span style=&quot;color: rgb(0 , 0 , 0) ; font-family: &amp;#34;helvetica&amp;#34; ; font-size: 14px ; font-style: normal ; font-weight: 400 ; letter-spacing: normal ; text-align: center ; text-indent: 0px ; text-transform: none ; word-spacing: 0px ; background-color: rgb(248 , 249 , 250) ; display: inline ; float: none&quot;&gt;execute ./crack_attack&lt;br&gt;1. find ~/csc2021/material/victim.dat&lt;br&gt;2. combination&lt;br&gt;3. cracking the password&lt;br&gt;&lt;/span&gt;" style="text;whiteSpace=wrap;html=1;" vertex="1" parent="1">
          <mxGeometry x="60" y="331" width="270" height="30" as="geometry" />
        </mxCell>
        <mxCell id="rPoK7AbFEsscb3aZ_IW5-13" value="SSH dictionary attack" style="text;html=1;resizable=0;autosize=1;align=center;verticalAlign=middle;points=[];fillColor=none;strokeColor=none;rounded=0;" vertex="1" parent="1">
          <mxGeometry x="349" y="311" width="130" height="20" as="geometry" />
        </mxCell>
        <mxCell id="rPoK7AbFEsscb3aZ_IW5-15" value="" style="rounded=0;whiteSpace=wrap;html=1;" vertex="1" parent="1">
          <mxGeometry x="530" y="315" width="200" height="145" as="geometry" />
        </mxCell>
        <mxCell id="rPoK7AbFEsscb3aZ_IW5-16" value="CAT" style="text;html=1;resizable=0;autosize=1;align=center;verticalAlign=middle;points=[];fillColor=none;strokeColor=none;rounded=0;" vertex="1" parent="1">
          <mxGeometry x="534" y="319" width="40" height="20" as="geometry" />
        </mxCell>
      </root>
    </mxGraphModel>
  </diagram>
</mxfile>
